{"title":"Americas.Got.Talent.S10E26.Finale.Results.HDTV.x264-TinyE","uid":12451791,"size":741555140,"categoryP":"video","categoryS":"tv_shows","magnet":"?xt=urn:btih:7432096adf8b445a96fbd32aeecc3b5856e20fbe&amp;dn=Americas.Got.Talent.S10E26.Finale.Results.HDTV.x264-TinyE&amp;tr=udp%3A%2F%2Ftracker.openbittorrent.com%3A80&amp;tr=udp%3A%2F%2Fopen.demonii.com%3A1337&amp;tr=udp%3A%2F%2Ftracker.coppersurfer.tk%3A6969&amp;tr=udp%3A%2F%2Fexodus.desync.com%3A6969","seeders":1,"leechers":0,"uploader":"TvTeam","files":3,"time":1442694771,"description":"------------------------------------------------------------------------\n\n &lt;a href=&quot; https://www.torrenting.com&quot; rel=&quot;nofollow&quot; target=&quot;_NEW&quot;&gt; https://www.torrenting.com&lt;/a&gt;\n\nSign up is OPEN - for time being. Come and have fun.\n\n------------------------------------------------------------------------\n.[center]\nShow Name : \nEpisdode : 26\nAir Date : \nCast : \n[plot]\n\nEnglish\n[info]\n[quote]General\nFormat                                   : MPEG-4\nFormat profile                           : Base Media\nCodec ID                                 : isom\nFile size                                : 707 MiB\nDuration                                 : 1h 24mn\nOverall bit rate mode                    : Variable\nOverall bit rate                         : 1 164 Kbps\nWriting application                      : Lavf54.63.104\n\nVideo\nID                                       : 1\nFormat                                   : AVC\nFormat/Info                              : Advanced Video Codec\nFormat profile                           : &lt;a class=&quot;__cf_email__&quot; href=&quot;/cdn-cgi/l/email-protection&quot; data-cfemail=&quot;b1fcd0d8dff1fd829f81&quot;&gt;[email&amp;#160;protected]&lt;/a&gt;&lt;script data-cfhash='f9e31' type=&quot;text/javascript&quot;&gt;\n/* &lt;![CDATA[ */!function(){try{var t=&quot;currentScript&quot;in document?document.currentScript:function(){for(var t=document.getElementsByTagName(&quot;script&quot;),e=t.length;e--;)if(t[e].getAttribute(&quot;data-cfhash&quot;))return t[e]}();if(t&amp;&amp;t.previousSibling){var e,r,n,i,c=t.previousSibling,a=c.getAttribute(&quot;data-cfemail&quot;);if(a){for(e=&quot;&quot;,r=parseInt(a.substr(0,2),16),n=2;a.length-n;n+=2)i=parseInt(a.substr(n,2),16)^r,e+=String.fromCharCode(i);e=document.createTextNode(e),c.parentNode.replaceChild(e,c)}t.parentNode.removeChild(t);}}catch(u){}}()/* ]]&gt; */&lt;/script&gt;\nFormat settings, CABAC                   : Yes\nFormat settings, ReFrames                : 3 frames\nCodec ID                                 : avc1\nCodec ID/Info                            : Advanced Video Coding\nDuration                                 : 1h 24mn\nBit rate mode                            : Constant\nBit rate                                 : 1 030 Kbps\nWidth                                    : 720 pixels\nHeight                                   : 400 pixels\nDisplay aspect ratio                     : 16:9\nFrame rate mode                          : Variable\nFrame rate                               : 29.970 fps\nMinimum frame rate                       : 29.970 fps\nMaximum frame rate                       : 30.000 fps\nStandard                                 : NTSC\nColor space                              : YUV\nChroma subsampling                       : 4:2:0\nBit depth                                : 8 bits\nScan type                                : Progressive\nBits/(Pixel*Frame)                       : 0.119\nStream size                              : 626 MiB (88%)\n\nAudio\nID                                       : 2\nFormat                                   : AAC\nFormat/Info                              : Advanced Audio Codec\nFormat profile                           : LC\nCodec ID                                 : 40\nDuration                                 : 1h 24mn\nDuration_LastFrame                       : -21ms\nBit rate mode                            : Variable\nBit rate                                 : 125 Kbps\nMaximum bit rate                         : 128 Kbps\nChannel(s)                               : 2 channels\nChannel positions                        : Front: L R\nSampling rate                            : 48.0 KHz\nCompression mode                         : Lossy\nStream size                              : 76.2 MiB (11%)\nLanguage                                 : English\n\nText #1\nID                                       : 1-CC1\nFormat                                   : EIA-608\nMuxing mode                              : AVC / SCTE 128 / DTVCC Transport\nMuxing mode, more info                   : Muxed in Video #1\nDuration                                 : 1h 24mn\nBit rate mode                            : Constant\nStream size                              : 0.00 Byte (0%)\nEncoded stream size                      : 0.00 Byte (0%)\n\nText #2\nID                                       : 1-1\nFormat                                   : EIA-708\nMuxing mode                              : AVC / SCTE 128 / DTVCC Transport\nMuxing mode, more info                   : Muxed in Video #1\nDuration                                 : 1h 24mn\nBit rate mode                            : Constant\nStream size                              : 0.00 Byte (0%)\nEncoded stream size                      : 0.00 Byte (0%)\n\nText #3\nID                                       : 1-2\nFormat                                   : EIA-708\nMuxing mode                              : AVC / SCTE 128 / DTVCC Transport\nMuxing mode, more info                   : Muxed in Video #1\nDuration                                 : 1h 24mn\nBit rate mode                            : Constant\nStream size                              : 0.00 Byte (0%)\nEncoded stream size                      : 0.00 Byte (0%)\n\n\n[/quote]\n[/info][/center]","torrent":{"xt":"urn:btih:7432096adf8b445a96fbd32aeecc3b5856e20fbe","amp;dn":"Americas.Got.Talent.S10E26.Finale.Results.HDTV.x264-TinyE","amp;tr":["udp%3A%2F%2Ftracker.openbittorrent.com%3A80","udp%3A%2F%2Fopen.demonii.com%3A1337","udp%3A%2F%2Ftracker.coppersurfer.tk%3A6969","udp%3A%2F%2Fexodus.desync.com%3A6969"],"infoHash":"7432096adf8b445a96fbd32aeecc3b5856e20fbe","infoHashBuffer":{"type":"Buffer","data":[116,50,9,106,223,139,68,90,150,251,211,42,238,204,59,88,86,226,15,190]},"announce":[],"urlList":[]}}